<?xml version="1.0" standalone="no"?>
<!DOCTYPE svg PUBLIC "-//W3C//DTD SVG 20010904//EN"
 "http://www.w3.org/TR/2001/REC-SVG-20010904/DTD/svg10.dtd">
<svg version="1.0" xmlns="http://www.w3.org/2000/svg"
 width="1070.000000pt" height="1070.000000pt" viewBox="0 0 1070.000000 1070.000000"
 preserveAspectRatio="xMidYMid meet">
<metadata>
Created by potrace 1.11, written by Peter Selinger 2001-2013
</metadata>
<g transform="translate(0.000000,1070.000000) scale(0.100000,-0.100000)"
fill="#000000" stroke="none">
<path d="M2959 10693 c-8 -2 -24 -18 -35 -36 -21 -35 -26 -137 -11 -254 5 -41
4 -63 -3 -64 -17 -2 -23 -4 -90 -26 -36 -12 -83 -30 -105 -39 -22 -10 -42 -18
-45 -19 -17 -4 -126 -60 -128 -67 -2 -4 -9 -8 -16 -8 -6 0 -45 -20 -85 -45
-40 -25 -75 -45 -78 -45 -2 0 -10 -6 -18 -12 -7 -7 -52 -39 -99 -72 -47 -32
-86 -63 -86 -67 0 -5 -7 -9 -15 -9 -9 0 -18 -7 -21 -15 -4 -8 -10 -15 -15 -15
-5 0 -17 -8 -28 -17 -10 -10 -36 -33 -57 -52 -92 -80 -230 -219 -303 -306 -34
-40 -151 -201 -151 -208 0 -3 -17 -34 -38 -68 -21 -35 -52 -100 -69 -144 -58
-149 -69 -199 -72 -335 l-2 -65 -71 -75 c-109 -115 -134 -191 -81 -250 14 -17
32 -30 40 -30 7 0 13 -3 14 -7 5 -48 31 -90 63 -103 32 -12 134 0 176 20 97
48 140 66 140 60 0 -4 -7 -24 -16 -45 -14 -35 -14 -38 8 -57 13 -11 37 -27 53
-36 35 -18 157 -25 206 -12 19 5 50 11 69 14 19 2 46 7 60 10 14 3 50 9 80 12
46 5 59 2 82 -15 28 -22 68 -28 68 -10 0 5 4 8 8 5 5 -3 32 13 61 35 l52 39
62 -16 c108 -28 167 -33 238 -21 38 7 106 53 114 77 3 11 11 20 17 20 6 0 9 3
5 6 -6 7 40 85 57 96 6 4 17 1 26 -6 8 -8 38 -25 66 -39 l52 -24 48 24 c27 14
60 31 74 38 37 21 41 15 55 -100 4 -32 9 -68 12 -80 2 -11 5 -27 5 -35 0 -8 7
-51 14 -95 8 -44 17 -104 20 -134 3 -30 8 -64 11 -75 4 -21 6 -30 17 -116 3
-25 8 -56 11 -70 2 -14 7 -43 10 -65 3 -23 7 -50 9 -60 2 -11 7 -42 10 -70 4
-27 10 -64 12 -81 4 -26 -7 -50 -68 -141 -40 -60 -79 -120 -87 -134 -45 -76
-121 -212 -121 -217 0 -3 -6 -13 -14 -21 -7 -9 -28 -43 -45 -75 -17 -33 -35
-64 -39 -70 -18 -25 -84 -181 -108 -258 -33 -104 -37 -179 -13 -235 10 -24 22
-43 26 -43 9 0 34 39 67 105 12 22 23 42 26 45 3 3 14 18 24 35 33 50 88 106
149 147 31 21 57 36 57 33 0 -3 10 1 23 9 21 13 41 13 94 1 35 -8 82 -54 102
-99 33 -75 39 -96 58 -186 2 -11 13 -134 15 -170 3 -50 -27 -69 -76 -50 -45
17 -66 64 -62 144 5 115 -12 148 -87 171 -132 40 -212 -36 -210 -200 0 -78 8
-139 21 -180 3 -11 7 -22 7 -25 7 -32 37 -114 49 -138 9 -17 16 -35 16 -40 0
-5 -26 -22 -57 -38 -32 -16 -60 -32 -63 -35 -4 -5 -31 -17 -50 -24 -34 -11
-58 -26 -62 -37 -7 -21 -1 -129 10 -178 13 -55 14 -62 47 -175 14 -49 27 -97
29 -105 2 -8 10 -35 17 -60 7 -25 13 -49 15 -55 3 -13 69 -208 88 -262 18 -48
99 -205 128 -246 11 -15 17 -27 14 -27 -8 0 106 -164 116 -168 4 -2 8 -8 8
-14 0 -5 27 -43 60 -83 l60 -73 -41 -73 c-72 -129 -249 -493 -249 -511 0 -10
-4 -18 -8 -18 -5 0 -9 -6 -9 -12 0 -7 -10 -34 -21 -60 -12 -26 -22 -53 -22
-60 0 -8 -4 -18 -8 -24 -12 -12 -82 -245 -96 -314 -41 -207 -57 -350 -58 -520
0 -85 10 -251 17 -293 3 -11 7 -39 11 -61 3 -22 7 -44 10 -47 2 -4 6 -24 10
-45 7 -51 81 -273 99 -301 8 -12 15 -29 15 -38 0 -8 5 -15 12 -15 6 0 8 -3 5
-7 -4 -3 -3 -11 2 -17 21 -26 51 -88 51 -107 0 -65 -64 -139 -190 -220 -41
-27 -81 -54 -87 -59 -7 -6 -13 -9 -13 -6 0 3 -37 -18 -82 -46 -195 -119 -286
-228 -288 -340 0 -21 -4 -38 -9 -38 -12 0 -93 -78 -124 -121 -43 -57 -80 -157
-92 -244 -1 -11 -3 -22 -5 -25 -5 -11 2 -85 10 -104 4 -12 18 -31 30 -44 11
-12 23 -36 25 -52 19 -151 139 -319 282 -396 36 -20 165 -45 213 -43 51 4 122
25 131 41 4 7 13 7 26 0 25 -14 39 -4 45 33 6 27 2 32 -36 50 -61 30 -70 57
-68 205 6 352 5 377 -24 476 -22 76 -58 139 -111 194 l-43 45 43 41 c52 49
113 91 192 130 33 16 63 34 67 39 4 6 8 7 8 4 0 -4 41 15 92 42 51 27 96 49
100 49 4 0 8 4 8 9 0 5 8 12 18 15 10 3 42 29 71 56 57 53 59 54 101 10 18
-20 90 -70 99 -70 6 0 11 -4 11 -9 0 -12 186 -102 280 -136 88 -31 174 -56
211 -60 15 -1 31 -5 36 -8 9 -6 46 -14 103 -22 14 -2 50 -8 80 -14 30 -6 69
-13 85 -16 17 -2 41 -7 55 -10 88 -18 429 -25 575 -12 164 15 195 16 195 7 0
-5 -4 -12 -10 -15 -5 -3 -17 -21 -26 -40 -9 -19 -21 -35 -26 -35 -5 0 -6 -4
-3 -10 3 -5 1 -10 -4 -10 -6 0 -11 -4 -11 -9 0 -4 -22 -41 -49 -82 -50 -76
-113 -192 -119 -219 -15 -70 -5 -110 42 -155 36 -34 100 -89 135 -115 18 -14
39 -31 46 -37 8 -7 16 -13 19 -13 3 0 30 -16 61 -35 30 -20 57 -35 60 -35 3 0
21 -6 40 -14 78 -33 421 -124 500 -134 99 -12 388 -4 470 12 72 15 290 112
306 138 10 15 40 12 119 -12 41 -13 86 -24 100 -25 14 0 30 -4 35 -7 6 -3 33
-6 60 -7 52 -3 108 -8 113 -11 13 -10 335 2 402 14 14 3 42 8 62 11 126 17
339 96 415 152 34 26 63 87 68 143 2 19 6 74 9 122 4 47 9 97 12 110 3 12 7
39 9 58 2 19 7 62 11 95 10 81 10 383 0 470 -4 39 -9 84 -11 100 -2 17 -6 41
-9 55 -2 14 -7 42 -10 62 -3 21 -11 57 -16 80 -6 24 -13 54 -16 68 -25 122
-121 315 -207 414 l-33 39 17 81 c25 112 32 191 32 336 -1 139 -9 233 -27 300
-3 14 -8 36 -10 50 -3 14 -5 25 -6 25 -1 0 -3 7 -5 15 -1 8 -9 35 -16 60 -7
25 -13 48 -13 52 -1 3 -4 10 -8 14 -5 4 -8 16 -8 26 0 10 -4 26 -9 36 -5 9
-17 37 -27 62 -56 143 -209 464 -235 496 -6 7 -12 19 -13 26 -2 7 -37 84 -79
170 -43 87 -77 160 -77 163 0 3 -9 27 -21 53 -12 26 -25 56 -29 67 -5 11 -18
41 -29 68 -11 26 -18 47 -15 47 3 0 0 9 -6 21 -7 11 -14 32 -16 47 -4 22 -3
24 11 12 8 -7 15 -9 15 -5 0 4 10 1 23 -7 22 -15 107 -45 143 -52 10 -2 41 -7
67 -10 27 -4 57 -9 67 -11 9 -2 35 -7 56 -10 85 -16 411 -8 494 11 14 3 34 7
45 9 11 2 20 4 20 5 0 1 7 3 16 5 43 8 135 38 147 47 6 6 12 7 12 4 0 -4 28 8
63 26 214 113 375 255 535 473 26 36 62 96 62 104 0 5 3 11 7 13 10 4 116 208
108 208 -3 0 1 10 9 23 11 17 75 173 81 197 1 3 4 12 8 20 3 8 21 65 40 125
94 294 113 436 71 502 -33 53 -133 67 -517 74 -70 2 -130 6 -132 10 -3 4 6 14
19 22 73 48 155 160 156 212 0 13 17 31 47 50 98 62 206 202 222 289 27 145
-33 275 -150 325 -63 28 -130 26 -216 -4 l-62 -22 -11 26 c-29 68 -78 97 -147
86 -26 -4 -49 -7 -50 -7 -2 1 -33 -8 -70 -19 -38 -11 -77 -22 -88 -25 -11 -3
-24 -6 -30 -8 -5 -2 -23 -6 -40 -10 -92 -24 -283 -105 -405 -174 -106 -59
-119 -68 -199 -139 -40 -36 -47 -39 -49 -20 -1 18 -12 69 -19 92 -4 11 -8 22
-8 25 -2 7 -15 40 -26 68 -10 25 -19 23 118 25 46 1 83 4 83 7 0 3 15 6 33 7
52 2 99 15 167 45 24 11 49 21 55 23 11 2 39 12 75 27 13 5 51 19 85 30 33 11
84 31 112 44 29 13 64 26 78 30 14 3 25 10 25 14 0 8 49 25 63 22 4 -1 7 2 7
6 0 4 16 14 35 21 19 7 35 16 35 21 0 5 13 11 29 15 16 3 35 13 42 21 6 8 16
14 21 14 8 0 156 91 183 113 6 4 39 29 75 55 35 26 74 56 85 67 12 11 43 41
71 66 147 139 221 237 314 414 23 44 45 85 48 90 4 6 7 12 8 15 0 3 11 28 23
55 29 65 72 224 89 330 9 56 8 279 0 345 -29 212 -175 442 -378 594 -75 56
-215 132 -260 141 -8 2 -42 11 -74 20 -33 10 -76 19 -95 20 -57 5 -312 5 -356
0 -22 -2 -62 -7 -90 -9 -27 -3 -61 -8 -75 -11 -14 -3 -38 -8 -55 -10 -16 -3
-41 -8 -55 -10 -14 -3 -36 -7 -50 -10 -32 -6 -111 -25 -130 -33 -8 -3 -18 -5
-21 -4 -3 0 -39 -8 -80 -19 -41 -11 -81 -21 -89 -24 -8 -2 -91 -24 -185 -50
-93 -25 -177 -48 -185 -50 -8 -2 -49 -14 -90 -25 -102 -29 -109 -31 -157 -37
-36 -4 -43 -1 -54 19 -18 33 -16 150 4 178 l15 22 17 -29 c56 -96 230 -121
300 -43 14 16 16 30 12 77 -3 32 -10 70 -15 83 -5 14 -11 30 -12 35 -4 18 -20
60 -31 81 -9 17 -4 37 26 105 50 113 61 178 41 231 -9 24 -16 28 -47 28 -59 0
-281 -82 -384 -142 -11 -6 -33 -18 -50 -27 -16 -8 -32 -17 -35 -20 -3 -3 -17
-13 -32 -21 -75 -42 -219 -181 -253 -244 -11 -20 -23 -36 -27 -36 -5 0 -8 -5
-8 -10 0 -6 -9 -29 -19 -53 -35 -76 -74 -230 -73 -285 3 -169 129 -326 306
-382 l39 -13 -78 -38 c-43 -22 -83 -39 -88 -39 -6 0 -18 -6 -26 -13 -9 -8 -36
-22 -61 -31 -25 -10 -58 -24 -75 -31 -53 -24 -110 -48 -120 -50 -5 -2 -48 -17
-95 -34 -47 -17 -87 -32 -90 -32 -3 -1 -9 -3 -15 -5 -23 -8 -173 -43 -205 -48
-19 -4 -53 -9 -75 -13 -79 -14 -171 -4 -250 27 -16 6 -31 11 -32 11 -2 -1 -4
-1 -5 0 -3 1 -20 5 -53 13 -23 5 -132 51 -220 92 -33 15 -62 28 -65 29 -9 3
-185 86 -203 96 -57 31 -186 68 -246 71 -34 1 -41 4 -35 17 3 9 10 31 16 49 5
17 12 32 16 33 4 0 14 2 22 4 41 10 68 15 95 19 17 2 55 8 85 12 30 4 60 8 65
9 6 1 31 5 57 9 55 9 88 40 91 84 1 24 8 33 27 38 14 4 30 9 35 10 6 2 28 8
50 13 22 5 50 12 63 15 12 3 30 8 40 10 36 9 106 37 119 47 7 6 13 8 13 5 0
-19 59 61 70 95 l13 40 -43 40 c-23 22 -48 57 -55 77 -11 31 -23 42 -76 69
-65 33 -91 40 -167 45 -41 2 -43 4 -82 69 -68 115 -147 205 -260 297 -36 29
-70 57 -77 62 -7 6 -16 10 -22 10 -5 0 -11 3 -13 8 -5 11 -60 47 -95 61 -18 8
-33 17 -33 22 0 5 -4 9 -9 9 -5 0 -47 17 -93 39 -80 37 -112 51 -133 57 -5 2
-30 10 -55 20 -99 36 -238 73 -335 88 -16 2 -37 7 -45 10 -8 3 -37 7 -65 10
-27 3 -75 9 -105 12 -130 17 -455 8 -554 -16 -22 -5 -42 -8 -45 -8 -3 1 -13
-2 -21 -5 -8 -3 -32 -10 -53 -16 -35 -9 -37 -8 -42 15 -3 13 -8 36 -11 52 -4
15 -8 38 -10 52 -2 14 -6 36 -10 50 -4 14 -8 32 -10 40 -12 63 -72 100 -135
83z m4987 -1765 c5 -3 38 -9 74 -13 70 -8 92 -11 118 -19 9 -3 28 -7 42 -10
89 -17 193 -78 231 -135 13 -20 26 -38 29 -41 3 -3 10 -20 17 -38 10 -29 9
-41 -7 -80 -32 -80 -48 -107 -97 -159 -71 -74 -166 -123 -298 -153 -72 -17
-74 -17 -136 -24 -31 -4 -67 -9 -80 -11 -44 -9 -103 -15 -174 -20 -38 -2 -72
-5 -75 -5 -14 -5 -149 -1 -175 4 -29 5 -69 19 -110 37 -34 15 -138 48 -185 59
-25 6 -54 13 -65 16 -22 6 -151 14 -233 14 l-53 0 20 29 c32 44 90 173 98 217
10 54 8 205 -4 213 -5 3 -19 23 -31 44 -23 40 -21 63 6 52 30 -11 127 -19 232
-19 135 1 270 8 270 14 0 3 12 5 28 6 15 1 50 4 77 7 28 4 82 10 120 13 39 4
71 8 73 9 6 5 279 -2 288 -7z m-3780 -261 c27 -2 66 0 88 5 21 5 41 7 43 4 3
-2 -6 -24 -20 -48 -34 -57 -78 -166 -84 -203 -3 -16 -8 -37 -13 -45 -17 -34
-5 -246 17 -300 3 -8 7 -19 8 -25 2 -5 12 -38 24 -72 12 -34 21 -64 21 -67 0
-2 -35 10 -77 27 -134 52 -264 38 -364 -39 -39 -30 -151 -145 -194 -199 -79
-100 -94 -110 -86 -62 1 5 -3 25 -8 45 -5 20 -12 57 -15 82 -3 25 -7 56 -10
70 -3 14 -7 41 -10 60 -3 19 -8 49 -12 65 -3 17 -7 44 -9 60 -3 30 -12 87 -21
135 -2 14 -7 41 -10 60 -2 19 -7 46 -9 60 -3 14 -8 42 -11 64 -3 21 -8 48 -10
60 -3 11 -6 39 -7 60 l-2 40 75 38 c46 23 96 40 130 44 30 3 59 7 65 8 5 0 23
-25 39 -56 32 -63 31 -63 117 -28 129 52 190 93 247 164 9 12 18 14 31 7 10
-6 40 -12 67 -14z m408 -1985 c-2 -15 -6 -43 -9 -62 -2 -19 -7 -46 -10 -60 -3
-14 -7 -41 -10 -60 -3 -19 -9 -50 -14 -67 -5 -18 -7 -33 -4 -33 3 0 0 -6 -6
-13 -6 -8 -9 -16 -6 -19 3 -2 0 -20 -6 -39 -6 -19 -13 -47 -16 -64 -7 -42 -39
-129 -75 -207 -30 -64 -48 -85 -48 -55 0 16 -48 61 -75 71 -52 20 -185 27
-270 15 -33 -5 -80 -11 -105 -14 -25 -4 -58 -10 -75 -15 -16 -4 -41 -11 -55
-14 l-25 -5 2 78 c1 42 -2 94 -7 114 -8 39 2 59 18 31 12 -21 78 -29 142 -15
78 17 209 82 260 131 25 23 88 83 141 134 104 99 155 146 208 189 37 31 51 25
45 -21z m3036 -235 c0 -28 190 -257 214 -257 3 0 14 -8 24 -17 10 -10 31 -28
46 -41 26 -22 27 -25 21 -100 -3 -42 -8 -111 -11 -152 -9 -139 -14 -185 -19
-210 -3 -14 -7 -34 -9 -45 -17 -92 -64 -198 -120 -272 -34 -45 -23 -43 -151
-28 -22 2 -71 7 -110 11 -38 3 -73 8 -76 9 -3 2 -28 7 -55 10 -27 4 -56 8 -64
10 -30 9 -107 17 -172 19 l-67 2 -66 81 c-36 45 -69 84 -74 87 -5 3 -4 27 1
53 6 27 10 54 11 61 0 6 4 12 9 12 5 0 6 5 3 10 -4 6 0 34 9 63 8 28 17 63 20
77 8 41 65 249 92 340 39 129 77 220 91 220 7 0 29 -10 50 -22 150 -85 235
-120 280 -112 25 4 84 57 81 73 -1 6 7 57 18 109 5 23 24 31 24 9z"/>
</g>
</svg>
